<mxfile host="app.diagrams.net" modified="2022-09-18T18:50:07.307Z" agent="5.0 (Windows NT 10.0; Win64; x64) AppleWebKit/537.36 (KHTML, like Gecko) Chrome/105.0.0.0 Safari/537.36" etag="nA76QMKZKZEJzq0kA7mN" version="20.3.2" type="github">
  <diagram id="SybGSiNFjlwIO-hnIRC8" name="Página-1">
    <mxGraphModel dx="1422" dy="786" grid="1" gridSize="10" guides="1" tooltips="1" connect="1" arrows="1" fold="1" page="1" pageScale="1" pageWidth="827" pageHeight="1169" math="0" shadow="0">
      <root>
        <mxCell id="0" />
        <mxCell id="1" parent="0" />
        <mxCell id="dXBveoqTByHvcUz7Pt3o-7" value="" style="edgeStyle=orthogonalEdgeStyle;rounded=0;orthogonalLoop=1;jettySize=auto;html=1;" edge="1" parent="1" source="dXBveoqTByHvcUz7Pt3o-1" target="dXBveoqTByHvcUz7Pt3o-2">
          <mxGeometry relative="1" as="geometry" />
        </mxCell>
        <mxCell id="dXBveoqTByHvcUz7Pt3o-1" value="Login" style="rounded=0;whiteSpace=wrap;html=1;" vertex="1" parent="1">
          <mxGeometry x="350" y="102" width="120" height="60" as="geometry" />
        </mxCell>
        <mxCell id="dXBveoqTByHvcUz7Pt3o-8" style="edgeStyle=orthogonalEdgeStyle;rounded=0;orthogonalLoop=1;jettySize=auto;html=1;entryX=0.392;entryY=0.033;entryDx=0;entryDy=0;entryPerimeter=0;" edge="1" parent="1" source="dXBveoqTByHvcUz7Pt3o-2" target="dXBveoqTByHvcUz7Pt3o-6">
          <mxGeometry relative="1" as="geometry" />
        </mxCell>
        <mxCell id="dXBveoqTByHvcUz7Pt3o-9" style="edgeStyle=orthogonalEdgeStyle;rounded=0;orthogonalLoop=1;jettySize=auto;html=1;" edge="1" parent="1" source="dXBveoqTByHvcUz7Pt3o-2" target="dXBveoqTByHvcUz7Pt3o-5">
          <mxGeometry relative="1" as="geometry" />
        </mxCell>
        <mxCell id="dXBveoqTByHvcUz7Pt3o-10" style="edgeStyle=orthogonalEdgeStyle;rounded=0;orthogonalLoop=1;jettySize=auto;html=1;" edge="1" parent="1" source="dXBveoqTByHvcUz7Pt3o-2" target="dXBveoqTByHvcUz7Pt3o-3">
          <mxGeometry relative="1" as="geometry" />
        </mxCell>
        <mxCell id="dXBveoqTByHvcUz7Pt3o-11" style="edgeStyle=orthogonalEdgeStyle;rounded=0;orthogonalLoop=1;jettySize=auto;html=1;" edge="1" parent="1" source="dXBveoqTByHvcUz7Pt3o-2" target="dXBveoqTByHvcUz7Pt3o-4">
          <mxGeometry relative="1" as="geometry" />
        </mxCell>
        <mxCell id="dXBveoqTByHvcUz7Pt3o-2" value="Home" style="rounded=0;whiteSpace=wrap;html=1;" vertex="1" parent="1">
          <mxGeometry x="350" y="200" width="120" height="60" as="geometry" />
        </mxCell>
        <mxCell id="dXBveoqTByHvcUz7Pt3o-3" value="Informações do Advogado" style="rounded=0;whiteSpace=wrap;html=1;" vertex="1" parent="1">
          <mxGeometry x="281" y="320" width="120" height="60" as="geometry" />
        </mxCell>
        <mxCell id="dXBveoqTByHvcUz7Pt3o-4" value="Criar Protocolos" style="rounded=0;whiteSpace=wrap;html=1;" vertex="1" parent="1">
          <mxGeometry x="135" y="321" width="120" height="60" as="geometry" />
        </mxCell>
        <mxCell id="dXBveoqTByHvcUz7Pt3o-5" value="Gerenciar protocolos" style="rounded=0;whiteSpace=wrap;html=1;" vertex="1" parent="1">
          <mxGeometry x="421" y="320" width="120" height="60" as="geometry" />
        </mxCell>
        <mxCell id="dXBveoqTByHvcUz7Pt3o-6" value="Gerenciar cartões" style="rounded=0;whiteSpace=wrap;html=1;" vertex="1" parent="1">
          <mxGeometry x="571" y="320" width="120" height="60" as="geometry" />
        </mxCell>
      </root>
    </mxGraphModel>
  </diagram>
</mxfile>
